:SAMPLES-PER-SECOND 30
:FULLY-SPECIFIED
:DEGREES
150
root  -4.10054 40.8934 -0.107943 -20.5321 -89.6159 19.3205
RightUpLeg  7.56471 -2.32295 -2.26789
RightLeg  -2.24342 -19.9258 0.55097
RightFoot  -1.79251 -0.329003 3.85365
RightToes  -3.10096e-008 1.75238e-005 3.56266e-009
Spine  -10.216 -4.553 -9.02598
Spine1  14.2432 -6.23163 8.31696
HEad  -8.04178 -0.546234 4.15498
LeftShoulder1  2.63746 -5.53046 -22.9244
LeftArm  -55.6987 -38.5037 -25.4211
LeftForeArm  7.1329 -43.571 -10.1885
LeftHand  0.726014 -4.77437 -7.98511
RightShoulder  3.1832 6.13064 27.0462
RightArm  -4.309 -30.4871 42.9254
RightForeArm  123.944 74.3342 137.549
RightHand  -0.565576 8.46715 -5.10539
LeftUpLeg  6.09449 1.39107 2.05217
LeftLeg  -2.27568 11.0033 -0.765081
LeftFoot  -1.49132 0.22012 -2.45737
LeftToes  4.7633e-008 1.48299e-008 1.30754e-009
151
root  -4.07706 40.8946 -0.078092 -178.296 -88.2284 176.994
RightUpLeg  7.4233 -2.20595 -2.14077
RightLeg  -2.39143 -18.0075 0.629972
RightFoot  -1.58039 -0.314898 3.64213
RightToes  -3.10096e-008 1.75238e-005 3.56266e-009
Spine  -10.864 -3.88068 -7.78159
Spine1  15.4541 -5.51921 7.52443
HEad  -8.16464 -0.289354 4.88847
LeftShoulder1  2.58829 -5.32508 -23.0512
LeftArm  -52.8859 -35.3599 -23.6674
LeftForeArm  4.43041 -48.6706 -12.4381
LeftHand  0.716936 -5.00779 -7.68648
RightShoulder  3.12155 5.97332 26.9413
RightArm  -4.59961 -30.5644 43.2275
RightForeArm  121.974 74.6735 136.17
RightHand  -0.568099 8.20497 -5.21527
LeftUpLeg  6.38948 1.47429 2.181
LeftLeg  -2.20168 12.9694 -0.663379
LeftFoot  -1.6813 0.229566 -2.61034
LeftToes  4.7633e-008 1.48299e-008 1.30754e-009
152
root  -4.0525 40.895 -0.0476053 174.915 -86.4004 -176.415
RightUpLeg  7.39301 -2.01211 -2.01412
RightLeg  -2.46243 -16.4096 0.509398
RightFoot  -1.36329 -0.303367 3.4728
RightToes  -3.10096e-008 1.75238e-005 3.56266e-009
Spine  -11.3253 -3.41207 -6.4675
Spine1  16.4736 -4.88319 6.32597
HEad  -7.80944 0.274955 5.93827
LeftShoulder1  2.67375 -5.48412 -23.5091
LeftArm  -51.5763 -32.1458 -21.4264
LeftForeArm  2.77375 -53.9438 -15.3316
LeftHand  0.780658 -5.66789 -7.85857
RightShoulder  3.06607 5.87893 26.6725
RightArm  -4.57117 -30.3197 43.5954
RightForeArm  119.241 75.1093 134.27
RightHand  -0.623691 7.98311 -5.76696
LeftUpLeg  6.91534 1.64168 2.28285
LeftLeg  -2.42805 14.601 -0.768696
LeftFoot  -1.71901 0.229003 -2.60812
LeftToes  4.7633e-008 1.48299e-008 1.30754e-009
153
root  -4.03169 40.8901 -0.0361952 173.748 -85.0233 -175.476
RightUpLeg  7.29242 -1.75422 -1.81428
RightLeg  -2.16307 -15.3175 0.240126
RightFoot  -1.36362 -0.30619 3.52842
RightToes  -3.10096e-008 1.75238e-005 3.56266e-009
Spine  -11.0898 -3.20429 -6.17316
Spine1  16.6294 -4.73451 6.26514
HEad  -6.32052 1.01982 7.01027
LeftShoulder1  2.75726 -5.6215 -23.9991
LeftArm  -51.1569 -28.263 -19.8036
LeftForeArm  2.85166 -61.0929 -20.8588
LeftHand  0.796814 -5.35291 -8.27156
RightShoulder  2.98076 5.65967 26.5166
RightArm  -4.0729 -30.7507 43.2139
RightForeArm  119.89 75.0864 134.466
RightHand  -0.668615 8.19192 -6.07334
LeftUpLeg  7.32743 1.8206 2.41879
LeftLeg  -2.44542 15.7639 -0.81785
LeftFoot  -1.82299 0.227365 -2.5884
LeftToes  4.7633e-008 1.48299e-008 1.30754e-009
154
root  -3.99814 40.8831 -0.0360908 173.347 -84.4826 -175.254
RightUpLeg  7.23501 -1.65 -1.72779
RightLeg  -1.89172 -14.8821 0.100278
RightFoot  -1.44996 -0.305772 3.53589
RightToes  -3.10096e-008 1.75238e-005 3.56266e-009
Spine  -10.8355 -3.60654 -7.15276
Spine1  16.9198 -5.45252 7.35692
HEad  -4.69977 2.74026 7.92548
LeftShoulder1  2.85591 -5.77515 -24.594
LeftArm  -51.6016 -23.9318 -18.0448
LeftForeArm  7.8424 -69.66 -32.5888
LeftHand  0.730549 -5.01386 -7.82745
RightShoulder  2.88888 5.5008 26.0552
RightArm  -3.37776 -30.3133 42.7002
RightForeArm  119.357 75.4355 133.19
RightHand  -0.557218 8.32031 -5.08349
LeftUpLeg  7.40833 1.91493 2.48855
LeftLeg  -2.15548 16.1812 -0.74115
LeftFoot  -1.98855 0.239188 -2.78176
LeftToes  4.7633e-008 1.48299e-008 1.30754e-009
155
root  -3.96742 40.8737 -0.0406386 173.405 -83.6547 -175.345
RightUpLeg  6.96599 -1.42488 -1.58774
RightLeg  -1.56469 -14.2963 -0.142674
RightFoot  -1.56718 -0.303577 3.51788
RightToes  -3.10096e-008 1.75238e-005 3.56266e-009
Spine  -10.7078 -3.84486 -6.99793
Spine1  17.1583 -5.62657 6.91586
HEad  -3.15079 4.57691 9.18444
LeftShoulder1  2.8078 -5.60641 -24.635
LeftArm  -53.2636 -21.1064 -15.9692
LeftForeArm  27.6212 -76.4466 -56.8154
LeftHand  0.775971 -5.80838 -7.72081
RightShoulder  2.86351 5.41755 26.069
RightArm  -2.6201 -30.4039 42.3371
RightForeArm  120.095 75.457 133.267
RightHand  -0.662334 8.10386 -6.05489
LeftUpLeg  7.46499 2.04436 2.57203
LeftLeg  -2.04258 16.8505 -0.794498
LeftFoot  -2.10271 0.246003 -2.90433
LeftToes  4.7633e-008 1.48299e-008 1.30754e-009
156
root  -3.96768 40.8603 -0.0551405 174.252 -82.7886 -176.316
RightUpLeg  6.85575 -1.30373 -1.58344
RightLeg  -1.25391 -13.5082 -0.368996
RightFoot  -1.81709 -0.303942 3.54167
RightToes  -3.10096e-008 1.75238e-005 3.56266e-009
Spine  -10.3793 -3.88275 -7.08687
Spine1  16.9621 -5.62907 6.78567
HEad  -1.66979 6.37657 10.3488
LeftShoulder1  2.6809 -5.28369 -24.3079
LeftArm  -55.7574 -20.0339 -13.9203
LeftForeArm  66.0776 -78.4061 -98.6097
LeftHand  0.689053 -6.20062 -6.55197
RightShoulder  2.78525 5.28187 25.6587
RightArm  -2.60098 -31.1708 42.4889
RightForeArm  118.369 75.4441 132.952
RightHand  -0.621208 7.97486 -5.75215
LeftUpLeg  7.75148 2.11835 2.53921
LeftLeg  -2.09102 17.6201 -0.882367
LeftFoot  -2.2352 0.25384 -3.04688
LeftToes  4.7633e-008 1.48299e-008 1.30754e-009
